<!DOCTYPE svg PUBLIC "-//W3C//DTD SVG 1.1//EN" "http://www.w3.org/Graphics/SVG/1.1/DTD/svg11.dtd">


<svg height="39px" width="50px" version="1.1" id="Layer_1" xmlns="http://www.w3.org/2000/svg" xmlns:xlink="http://www.w3.org/1999/xlink" viewBox="0 0 503.94 503.94" xml:space="preserve" fill="#000000" transform="matrix(1, 0, 0, 1, 0, 0)rotate(0)">

<g id="SVGRepo_bgCarrier" stroke-width="0"/>

<g id="SVGRepo_tracerCarrier" stroke-linecap="round" stroke-linejoin="round"/>

<g id="SVGRepo_iconCarrier"> <g> <path style="fill:#193A39;" d="M331.973,432.006c0,5.6-0.8,11.2-7.2,11.2h-105.6c-5.6,0-7.2-4.8-7.2-11.2v-112 c0-5.6,1.6-12.8,7.2-12.8h105.6c5.6,0,7.2,7.2,7.2,12.8V432.006z"/> <path style="fill:#193A39;" d="M427.973,432.006c0,5.6-3.2,11.2-9.6,11.2h-105.6c-5.6,0-12.8-4.8-12.8-11.2v-328 c0-5.6,7.2-13.6,12.8-13.6h105.6c5.6,0,9.6,4.8,9.6,10.4V432.006z"/> </g> <g> <path style="fill:#245151;" d="M259.973,420.006c0,8.8-3.2,15.2-12,15.2h-157.6c-8.8,0-14.4-6.4-14.4-15.2v-166.4 c0-8.8,5.6-18.4,14.4-18.4h157.6c8.8,0,12,9.6,12,18.4V420.006z"/> <path style="fill:#245151;" d="M143.173,413.606c2.4,8-2.4,16.8-10.4,19.2l-7.2,2.4c-8,2.4-16.8-2.4-19.2-10.4l-90.4-308 c-2.4-8,2.4-16.8,10.4-19.2l6.4-1.6c8-2.4,16.8,2.4,19.2,10.4L143.173,413.606z"/> </g> <path style="fill:#193A39;" d="M131.973,424.806c0,8.8-6.4,16-15.2,16.8h-6.4c-8.8,0-16-6.4-16.8-15.2l-13.6-320 c0-8.8,6.4-16,15.2-16.8h6.4c8.8,0,16,6.4,16.8,15.2L131.973,424.806z"/> <path style="fill:#35605F;" d="M103.173,376.806c0.8,8.8-5.6,16-14.4,16.8l-6.4,0.8c-8.8,0.8-16-5.6-16.8-14.4l-30.4-318.4 c-0.8-8.8,5.6-16,14.4-16.8l6.4-0.8c8.8-0.8,16,5.6,16.8,14.4L103.173,376.806z"/> <path style="fill:#FF0D52;" d="M455.173,351.206l48-152.8c1.6-6.4,0.8-13.6-3.2-18.4s-10.4-8.8-16.8-8.8h-462.4 c-6.4,0-12.8,3.2-16.8,8.8s-4.8,12-3.2,18.4l48,152.8c0,3.2,0.8,5.6,2.4,8.8l20.8,67.2c2.4,8.8,10.4,16,20,16h320 c8.8,0,16.8-7.2,20-16l20.8-67.2L455.173,351.206z M73.573,291.206h356.8l-12,40h-333.6L73.573,291.206z M455.173,211.206l-11.2,40 h-383.2l-11.2-40H455.173z M107.173,403.206l-8.8-32h308l-8.8,32H107.173z"/> <path style="fill:#E0004B;" d="M499.973,187.206c-4-5.6-10.4-8-16.8-8h-462.4c-6.4,0-12.8,2.4-16.8,8s-4.8,12-3.2,18.4l71.2,227.2 c0.8,1.6,0.8,3.2,1.6,4c-2.4,2.4-4,5.6-4,9.6c0,7.2,5.6,13.6,12.8,13.6h337.6c7.2,0,12.8-6.4,12.8-13.6c0-3.2-1.6-7.2-4-9.6 c0.8-1.6,1.6-2.4,1.6-4l20.8-66.4l2.4-8.8l48-152.8C504.773,199.206,503.973,192.006,499.973,187.206z M98.373,379.206h308l-8.8,32 h-290.4L98.373,379.206z M419.173,331.206h-334.4l-12-32h356.8L419.173,331.206z M443.173,259.206h-382.4l-11.2-40h405.6 L443.173,259.206z"/> <path style="fill:#65A5A8;" d="M153.573,194.406c-7.2,7.2-19.2,7.2-26.4,0l-16.8-16.8c-7.2-7.2-7.2-19.2,0-26.4l84.8-87.2 c7.2-7.2,19.2-7.2,26.4,0l16.8,16.8c7.2,7.2,7.2,19.2,0,26.4L153.573,194.406z"/> <path style="fill:#72B1B7;" d="M131.973,172.806l85.6-85.6c6.4-6.4,7.2-16.8,1.6-24c-7.2-5.6-17.6-4.8-24,1.6l-85.6,85.6 c-6.4,6.4-7.2,16.8-1.6,24C115.173,180.006,125.573,179.206,131.973,172.806z"/> <path style="fill:#579B9B;" d="M156.773,147.206c9.6,9.6-12,47.2-21.6,57.6c-9.6,9.6-25.6,9.6-36,0c-9.6-9.6-9.6-25.6,0-36 C109.573,158.406,147.173,136.806,156.773,147.206z"/> <g> <path style="opacity:0.2;fill:#83C9CC;enable-background:new ;" d="M155.173,186.406c-1.6,23.2-24,32.8-37.6,29.6 s-25.6-16-25.6-29.6s11.2-25.6,25.6-25.6C131.173,160.806,155.973,172.006,155.173,186.406z"/> <circle style="fill:#83C9CC;" cx="117.573" cy="186.406" r="25.6"/> </g> <g> <path style="fill:#72B1B7;" d="M135.173,168.006c9.6,9.6,9.6,25.6,0,36c-9.6,9.6-25.6,9.6-36,0"/> <path style="fill:#72B1B7;" d="M350.373,194.406c7.2,7.2,19.2,7.2,26.4,0l16.8-16.8c7.2-7.2,7.2-19.2,0-26.4l-84.8-87.2 c-7.2-7.2-19.2-7.2-26.4,0l-16.8,16.8c-7.2,7.2-7.2,19.2,0,26.4L350.373,194.406z"/> </g> <path style="fill:#65A5A8;" d="M371.973,172.806l-85.6-86.4c-6.4-6.4-7.2-16.8-1.6-24c7.2-5.6,17.6-4.8,24,1.6l85.6,85.6 c6.4,6.4,7.2,16.8,1.6,24C388.773,180.006,378.373,179.206,371.973,172.806z"/> <path style="fill:#579B9B;" d="M347.173,147.206c-9.6,9.6,12,47.2,21.6,57.6c9.6,9.6,25.6,9.6,36,0c9.6-9.6,9.6-25.6,0-36 C394.373,158.406,356.773,136.806,347.173,147.206z"/> <path style="opacity:0.2;fill:#83C9CC;enable-background:new ;" d="M348.773,186.406c1.6,23.2,24,32.8,37.6,29.6 s25.6-16,25.6-29.6s-11.2-25.6-25.6-25.6C372.773,160.806,347.973,172.006,348.773,186.406z"/> <circle style="fill:#72B1B7;" cx="386.373" cy="186.406" r="25.6"/> <path style="fill:#83C9CC;" d="M368.773,168.006c-9.6,9.6-9.6,25.6,0,36c9.6,9.6,25.6,9.6,36,0"/> </g>

</svg>